<svg width="120" height="120" viewBox="0 0 120 120" xmlns="http://www.w3.org/2000/svg" xmlns:xlink="http://www.w3.org/1999/xlink"><defs><path id="a" d="M0 .503h57.247v23.055H0z"/><path id="c" d="M.054.503h57.245v23.055H.054z"/><path id="e" d="M.208.49h34.49v52.074H.208z"/></defs><g fill="none" fill-rule="evenodd"><path d="M62.754 68.371S75.672 66.9 78.019 53.953C80.368 41.007 119.706 56.6 120 72.196c0 0-9.98-11.77-17.907 0 0 0-6.458-11.77-13.504-.294 0 0-6.458-11.377-12.916-.099l-12.918-3.432z" fill="#6658A5"/><g transform="matrix(-1 0 0 1 120 48.638)"><mask id="b" fill="#fff"><use xlink:href="#a"/></mask><path d="M41.98 5.315c2.348 12.946 15.267 14.418 15.267 14.418L46.189 22.67c-2.675-8.385-10.605-14.6-19.767-14.6-7.525 0-14.2 4.201-17.835 10.341C3.807 19.075 0 23.558 0 23.558.294 7.964 39.632-7.631 41.98 5.315" fill="#2A3577" mask="url(#b)"/></g><path d="M57.724 68.371S44.808 66.9 42.458 53.953C40.11 41.007.773 56.6.48 72.196c0 0 9.98-11.77 17.905 0 0 0 6.46-11.77 13.506-.294 0 0 6.458-11.377 12.917-.099l12.916-3.432z" fill="#6658A5"/><g transform="matrix(-1 0 0 1 57.778 48.638)"><mask id="d" fill="#fff"><use xlink:href="#c"/></mask><path d="M15.32 5.315C12.97 18.26.053 19.733.053 19.733L11.11 22.67c2.676-8.385 10.605-14.6 19.768-14.6 7.523 0 14.2 4.201 17.835 10.341 4.778.663 8.586 5.146 8.586 5.146-.294-15.594-39.63-31.189-41.98-18.243" fill="#2A3577" mask="url(#d)"/></g><g transform="matrix(-1 0 0 1 77.333 55.766)"><mask id="f" fill="#fff"><use xlink:href="#e"/></mask><path d="M34.698 22.014C34.698 10.126 26.977.49 17.453.49 7.93.49.208 10.126.208 22.014c0 8.838 4.266 16.426 10.366 19.743l5.785 10.176c.49.863 2.006.834 2.448-.046l4.94-9.83c6.41-3.14 10.95-10.927 10.95-20.043" fill="#2A3577" mask="url(#f)"/></g><path d="M54.06 24.317L45.933 11.32s-11.219 13.421-.948 25.615l9.077-12.618zm8.853.183L71.696 11s11.219 13.423.948 25.616l-9.73-12.117z" fill="#2A3577"/><path d="M44.477 40.824c0 8.791 7.11 15.918 15.882 15.918 8.77 0 15.882-7.127 15.882-15.918 0-8.79-7.111-15.917-15.882-15.917-8.772 0-15.882 7.127-15.882 15.917" fill="#2A3577"/><path d="M51.198 39.408c-1.52 4.88.984 10.158 5.812 12.003 4.83 1.84 10.204-.434 12.306-5.088l.698.267c-2.25 5.04-8.054 7.51-13.27 5.52-5.214-1.99-7.91-7.703-6.246-12.968l.7.266z" fill="#A491C5"/><path d="M64.997 30.175c0 5.052 4.087 9.148 9.128 9.148 5.04 0 9.127-4.096 9.127-9.148 0-5.053-4.087-9.15-9.127-9.15-5.041 0-9.128 4.097-9.128 9.15" fill="#2A3577"/><path d="M66.316 30.175c0 4.323 3.497 7.825 7.809 7.825 4.313 0 7.807-3.502 7.807-7.825 0-4.322-3.494-7.825-7.807-7.825-4.312 0-7.809 3.503-7.809 7.825" fill="#FCEF9A"/><path d="M71.1 30.175a3.027 3.027 0 0 0 3.025 3.031 3.028 3.028 0 0 0 3.025-3.03 3.028 3.028 0 0 0-3.025-3.032 3.027 3.027 0 0 0-3.024 3.031" fill="#171B1F"/><path d="M47.32 30.175c0 5.052 4.087 9.148 9.128 9.148 5.04 0 9.127-4.096 9.127-9.148 0-5.053-4.088-9.15-9.127-9.15-5.041 0-9.129 4.097-9.129 9.15" fill="#2A3577"/><path d="M48.639 30.175c0 4.323 3.497 7.825 7.809 7.825 4.313 0 7.807-3.502 7.807-7.825 0-4.322-3.494-7.825-7.807-7.825-4.312 0-7.81 3.503-7.81 7.825" fill="#FCEF9A"/><path d="M53.424 30.175a3.027 3.027 0 0 0 3.024 3.031 3.028 3.028 0 0 0 3.025-3.03 3.028 3.028 0 0 0-3.025-3.032 3.027 3.027 0 0 0-3.024 3.031" fill="#171B1F"/><path d="M47.425 72.499c0 8.587 5.576 15.545 12.455 15.545 6.879 0 12.455-6.958 12.455-15.545 0-8.586-5.576-15.546-12.455-15.546-6.879 0-12.455 6.96-12.455 15.546" fill="#6658A5"/></g></svg>